<?xml version="1.0" encoding="utf-8"?>
<svg width="3845.0002px" height="1152.8489px" viewBox="0 0 3845.0002 1152.8489" version="1.1" xmlns:xlink="http://www.w3.org/1999/xlink" xmlns="http://www.w3.org/2000/svg">
  <path d="M3 798.551C302.185 628.048 347.411 545.194 360.001 440.051C372.59 334.908 307.729 90.4891 360.001 84.0502C412.272 77.6113 554.789 100.73 636.501 84.0502C718.212 67.3705 799.76 -3.94672 861.001 3.55011C922.243 11.0469 1149.62 84.5679 1193.5 84.0502C1237.38 83.5324 1302.34 161.568 1344.5 143.55C1386.66 125.533 1411.34 50.5677 1446.5 54.5502C1481.66 58.5326 1654.34 74.5677 1679.5 84.0502C1704.66 93.5325 1761.28 124.755 1774 143.55C1786.73 162.345 1875.5 228.505 1886.5 275.05C1897.5 321.595 1866.38 511.068 1886.5 526.55C1906.63 542.033 1970.69 659.005 2078.5 645.05C2186.31 631.095 2345.55 668.013 2376 669.05C2406.45 670.087 2596.35 673.313 2662 625.55C2727.65 577.787 2846.35 480.813 2873.5 467.05C2900.65 453.287 3074.06 379.213 3172 397.05C3269.94 414.887 3362.06 438.813 3373.5 467.05C3384.95 495.287 3445.16 681.613 3456.5 768.05C3467.85 854.487 3441.96 944.713 3494.5 977.55C3547.04 1010.39 3693.97 1121.61 3743.5 1128.05C3793.03 1134.49 3778.97 1154.01 3842 1149.05" id="Vetor" fill="none" fill-rule="evenodd" stroke="#000000" stroke-width="6" />
</svg>