<?xml version="1.0" encoding="utf-8"?>
<svg width="1028px" height="567px" viewBox="0 0 1028 567" version="1.1" xmlns:xlink="http://www.w3.org/1999/xlink" xmlns="http://www.w3.org/2000/svg">
  <defs>
    <path d="M516 256C516 114.615 630.615 0.00012207 772 0.00012207C913.385 0.00012207 1028 114.615 1028 256C1028 397.385 913.385 512 772 512C630.615 512 516 397.385 516 256Z" id="path_1" />
    <path d="M256 256C256 114.615 370.615 0 512 0C653.385 0 768 114.615 768 256C768 397.385 653.385 512 512 512C370.615 512 256 397.385 256 256Z" id="path_2" />
    <path d="M0 256C0 114.615 114.615 0 256 0C397.385 0 512 114.615 512 256C512 397.385 397.385 512 256 512C114.615 512 0 397.385 0 256Z" id="path_3" />
    <rect width="1028" height="567" id="artboard_1" />
    <clipPath id="clip_1">
      <use xlink:href="#artboard_1" clip-rule="evenodd" />
    </clipPath>
    <clipPath id="clip_2">
      <use xlink:href="#path_1" />
    </clipPath>
    <clipPath id="clip_3">
      <use xlink:href="#path_2" />
    </clipPath>
    <clipPath id="clip_4">
      <use xlink:href="#path_3" />
    </clipPath>
  </defs>
  <g id="logo" clip-path="url(#clip_1)">
    <use xlink:href="#artboard_1" stroke="none" fill="#FFFFFF" fill-opacity="0" />
    <g id="oval-2" artboard="346453c4-46ce-4a40-9f52-ebe3eca266fe">
      <use stroke="none" fill="#FFFFFF" xlink:href="#path_1" fill-rule="evenodd" />
      <g clip-path="url(#clip_2)">
        <use xlink:href="#path_1" fill="none" stroke="#000000" stroke-width="8" />
      </g>
    </g>
    <g id="oval-1" artboard="4b8e5e35-1ed4-4712-9191-33a901361660">
      <use stroke="none" fill="#FFFFFF" xlink:href="#path_2" fill-rule="evenodd" />
      <g clip-path="url(#clip_3)">
        <use xlink:href="#path_2" fill="none" stroke="#000000" stroke-width="6" />
      </g>
    </g>
    <g id="oval" artboard="afb1c2df-df70-4cbb-9808-966a15ed1cc6">
      <use stroke="none" fill="#FFFFFF" xlink:href="#path_3" fill-rule="evenodd" />
      <g clip-path="url(#clip_4)">
        <use xlink:href="#path_3" fill="none" stroke="#000000" stroke-width="6" />
      </g>
    </g>
  </g>
</svg>